REM DIRINDEX 1\2,1\3,1\4
REM DIRNAME folder01,folder02,folder03,folder04
TITLE ""
FILE "CD1-20.mp3" MP3
  TRACK 01 AUDIO
    TITLE "2:cjc031_1228"
    INDEX 01 00:00:00
  TRACK 02 AUDIO
    TITLE "3:cjc031_1229"
    INDEX 01 00:01:03
  TRACK 03 AUDIO
    TITLE "2:cjc031_1230"
    INDEX 01 00:02:32
  TRACK 04 AUDIO
    TITLE "3:cjc031_1231"
    INDEX 01 00:03:53
  TRACK 05 AUDIO
    TITLE "2:cjc031_1232"
    INDEX 01 00:05:05
  TRACK 06 AUDIO
    TITLE "3:cjc031_1233"
    INDEX 01 00:06:22
  TRACK 07 AUDIO
    TITLE "2:cjc031_1234"
    INDEX 01 00:07:74
  TRACK 08 AUDIO
    TITLE "3:cjc031_1235"
    INDEX 01 00:09:12
  TRACK 09 AUDIO
    TITLE "2:cjc031_1236"
    INDEX 01 00:10:39
  TRACK 10 AUDIO
    TITLE "3:cjc031_1237"
    INDEX 01 00:11:54
  TRACK 11 AUDIO
    TITLE "2:cjc031_1238"
    INDEX 01 00:13:04
  TRACK 12 AUDIO
    TITLE "3:cjc031_1239"
    INDEX 01 00:14:25
  TRACK 13 AUDIO
    TITLE "2:cjc031_1240"
    INDEX 01 00:15:58
  TRACK 14 AUDIO
    TITLE "3:cjc031_1241"
    INDEX 01 00:17:00
  TRACK 15 AUDIO
    TITLE "2:cjc031_1242"
    INDEX 01 00:18:35
  TRACK 16 AUDIO
    TITLE "3:cjc031_1243"
    INDEX 01 00:19:56
  TRACK 17 AUDIO
    TITLE "2:cjc031_1244"
    INDEX 01 00:21:39
  TRACK 18 AUDIO
    TITLE "3:cjc031_1245"
    INDEX 01 00:22:58
  TRACK 19 AUDIO
    TITLE "2:cjc031_1246"
    INDEX 01 00:24:35
  TRACK 20 AUDIO
    TITLE "3:cjc031_1247"
    INDEX 01 00:25:54
  TRACK 21 AUDIO
    TITLE "2:cjc031_1248"
    INDEX 01 00:27:10
  TRACK 22 AUDIO
    TITLE "3:cjc031_1249"
    INDEX 01 00:28:68
  TRACK 23 AUDIO
    TITLE "2:cjc031_1250"
    INDEX 01 00:30:16
  TRACK 24 AUDIO
    TITLE "3:cjc031_1251"
    INDEX 01 00:31:73
  TRACK 25 AUDIO
    TITLE "2:cjc031_1252"
    INDEX 01 00:33:73
  TRACK 26 AUDIO
    TITLE "3:cjc031_1253"
    INDEX 01 00:35:45
  TRACK 27 AUDIO
    TITLE "2:cjc031_1254"
    INDEX 01 00:36:62
  TRACK 28 AUDIO
    TITLE "3:cjc031_1255"
    INDEX 01 00:38:08
  TRACK 29 AUDIO
    TITLE "2:cjc031_1256"
    INDEX 01 00:39:51
  TRACK 30 AUDIO
    TITLE "3:cjc031_1257"
    INDEX 01 00:41:26
  TRACK 31 AUDIO
    TITLE "2:cjc031_1258"
    INDEX 01 00:43:17
  TRACK 32 AUDIO
    TITLE "3:cjc031_1259"
    INDEX 01 00:44:30
  TRACK 33 AUDIO
    TITLE "2:cjc031_1260"
    INDEX 01 00:45:65
  TRACK 34 AUDIO
    TITLE "3:cjc031_1261"
    INDEX 01 00:47:13
  TRACK 35 AUDIO
    TITLE "2:cjc031_1262"
    INDEX 01 00:48:61
  TRACK 36 AUDIO
    TITLE "3:cjc031_1263"
    INDEX 01 00:50:21
  TRACK 37 AUDIO
    TITLE "2:cjc031_1264"
    INDEX 01 00:52:28
  TRACK 38 AUDIO
    TITLE "3:cjc031_1265"
    INDEX 01 00:53:41
  TRACK 39 AUDIO
    TITLE "2:cjc031_1266"
    INDEX 01 00:54:62
  TRACK 40 AUDIO
    TITLE "3:cjc031_1267"
    INDEX 01 00:56:14
  TRACK 41 AUDIO
    TITLE "2:cjc031_1268"
    INDEX 01 00:57:62
  TRACK 42 AUDIO
    TITLE "3:cjc031_1269"
    INDEX 01 00:59:22
  TRACK 43 AUDIO
    TITLE "2:cjc031_1270"
    INDEX 01 01:00:51
  TRACK 44 AUDIO
    TITLE "3:cjc031_1271"
    INDEX 01 01:01:72
  TRACK 45 AUDIO
    TITLE "2:cjc031_1272"
    INDEX 01 01:03:59
  TRACK 46 AUDIO
    TITLE "3:cjc031_1273"
    INDEX 01 01:05:05
  TRACK 47 AUDIO
    TITLE "2:cjc031_1274"
    INDEX 01 01:06:49
  TRACK 48 AUDIO
    TITLE "3:cjc031_1275"
    INDEX 01 01:07:68
  TRACK 49 AUDIO
    TITLE "2:cjc031_1276"
    INDEX 01 01:09:20
  TRACK 50 AUDIO
    TITLE "3:cjc031_1277"
    INDEX 01 01:10:43
  TRACK 51 AUDIO
    TITLE "2:cjc031_1278"
    INDEX 01 01:12:05
  TRACK 52 AUDIO
    TITLE "3:cjc031_1279"
    INDEX 01 01:13:44
  TRACK 53 AUDIO
    TITLE "2:cjc031_1280"
    INDEX 01 01:15:27
  TRACK 54 AUDIO
    TITLE "3:cjc031_1281"
    INDEX 01 01:16:50
  TRACK 55 AUDIO
    TITLE "2:cjc031_1282"
    INDEX 01 01:18:27
  TRACK 56 AUDIO
    TITLE "3:cjc031_1283"
    INDEX 01 01:19:58
  TRACK 57 AUDIO
    TITLE "2:cjc031_1284"
    INDEX 01 01:21:33
  TRACK 58 AUDIO
    TITLE "3:cjc031_1285"
    INDEX 01 01:22:74
  TRACK 59 AUDIO
    TITLE "2:cjc031_1286"
    INDEX 01 01:24:20
  TRACK 60 AUDIO
    TITLE "3:cjc031_1287"
    INDEX 01 01:25:70
  TRACK 61 AUDIO
    TITLE "2:cjc031_1288"
    INDEX 01 01:27:57
  TRACK 62 AUDIO
    TITLE "3:cjc031_1289"
    INDEX 01 01:29:07
  TRACK 63 AUDIO
    TITLE "2:cjc031_1290"
    INDEX 01 01:30:58
  TRACK 64 AUDIO
    TITLE "3:cjc031_1291"
    INDEX 01 01:32:04
  TRACK 65 AUDIO
    TITLE "2:cjc031_1292"
    INDEX 01 01:33:33
  TRACK 66 AUDIO
    TITLE "3:cjc031_1293"
    INDEX 01 01:35:00
  TRACK 67 AUDIO
    TITLE "2:cjc031_1294"
    INDEX 01 01:36:58
  TRACK 68 AUDIO
    TITLE "3:cjc031_1295"
    INDEX 01 01:38:10
  TRACK 69 AUDIO
    TITLE "2:cjc031_1296"
    INDEX 01 01:39:41
  TRACK 70 AUDIO
    TITLE "3:cjc031_1297"
    INDEX 01 01:40:58
  TRACK 71 AUDIO
    TITLE "2:cjc031_1298"
    INDEX 01 01:41:73
  TRACK 72 AUDIO
    TITLE "3:cjc031_1299"
    INDEX 01 01:43:29
  TRACK 73 AUDIO
    TITLE "2:cjc031_1300"
    INDEX 01 01:45:04
  TRACK 74 AUDIO
    TITLE "3:cjc031_1301"
    INDEX 01 01:46:35
  TRACK 75 AUDIO
    TITLE "2:cjc031_1302"
    INDEX 01 01:48:07
  TRACK 76 AUDIO
    TITLE "3:cjc031_1303"
    INDEX 01 01:49:33
  TRACK 77 AUDIO
    TITLE "2:cjc031_1304"
    INDEX 01 01:51:07
  TRACK 78 AUDIO
    TITLE "3:cjc031_1305"
    INDEX 01 01:52:48
  TRACK 79 AUDIO
    TITLE "2:cjc031_1306"
    INDEX 01 01:53:70
  TRACK 80 AUDIO
    TITLE "3:cjc031_1307"
    INDEX 01 01:55:09
  TRACK 81 AUDIO
    TITLE "0:"
    INDEX 01 01:56:28
